HIERARCHY
ROOT Hips
{
	OFFSET 51.998402 -7.811119 56.112801
	CHANNELS 6 Xposition Yposition Zposition Xrotation Yrotation Zrotation
	JOINT spine
	{
		OFFSET 0.000000 -0.367607 6.392601
		CHANNELS 3 Xrotation Yrotation Zrotation
		JOINT spine1
		{
			OFFSET 0.000000 -0.000001 9.176109
			CHANNELS 3 Xrotation Yrotation Zrotation
			JOINT spine2
			{
				OFFSET 0.000000 -0.000002 8.792381
				CHANNELS 3 Xrotation Yrotation Zrotation
				JOINT Neck
				{
					OFFSET 0.000000 -1.076243 22.573700
					CHANNELS 3 Xrotation Yrotation Zrotation
					JOINT Head
					{
						OFFSET 0.000000 -0.000001 6.820107
						CHANNELS 3 Xrotation Yrotation Zrotation
						End Site
						{
							OFFSET 0.000000 5.444268 16.508499
						}
					}
				}
				JOINT RightShoulder
				{
					OFFSET -3.702209 0.515507 9.495087
					CHANNELS 3 Xrotation Yrotation Zrotation
					JOINT RightArm
					{
						OFFSET 0.000000 -0.000002 12.453697
						CHANNELS 3 Xrotation Yrotation Zrotation
						JOINT RightArmRoll
						{
							OFFSET 0.000000 -0.000001 6.286858
							CHANNELS 3 Xrotation Yrotation Zrotation
							JOINT RightForeArm
							{
								OFFSET 0.000000 -0.000003 18.311401
								CHANNELS 3 Xrotation Yrotation Zrotation
								JOINT RightForeArmRoll
								{
									OFFSET 0.000000 -0.000001 7.054825
									CHANNELS 3 Xrotation Yrotation Zrotation
									JOINT RightHand
									{
										OFFSET 0.000000 -0.000002 14.157501
										CHANNELS 3 Xrotation Yrotation Zrotation
										End Site
										{
											OFFSET 0.000000 0.000000 0.100006
										}
									}
								}
							}
						}
					}
				}
				JOINT LeftShoulder
				{
					OFFSET 3.702209 0.515507 9.495087
					CHANNELS 3 Xrotation Yrotation Zrotation
					JOINT LeftArm
					{
						OFFSET 0.000000 -0.000002 12.453697
						CHANNELS 3 Xrotation Yrotation Zrotation
						JOINT LeftArmRoll
						{
							OFFSET 0.000000 -0.000001 6.286858
							CHANNELS 3 Xrotation Yrotation Zrotation
							JOINT LeftForeArm
							{
								OFFSET 0.000000 -0.000003 18.311401
								CHANNELS 3 Xrotation Yrotation Zrotation
								JOINT LeftForeArmRoll
								{
									OFFSET 0.000000 -0.000001 7.054825
									CHANNELS 3 Xrotation Yrotation Zrotation
									JOINT LeftHand
									{
										OFFSET 0.000000 -0.000002 14.157501
										CHANNELS 3 Xrotation Yrotation Zrotation
										End Site
										{
											OFFSET 0.000000 0.000000 0.100006
										}
									}
								}
							}
						}
					}
				}
			}
		}
	}
	JOINT RightUpLeg
	{
		OFFSET -5.666161 0.871610 -1.039028
		CHANNELS 3 Xrotation Yrotation Zrotation
		JOINT RightUpLegRoll
		{
			OFFSET 0.000000 -0.000002 16.600498
			CHANNELS 3 Xrotation Yrotation Zrotation
			JOINT RightLeg
			{
				OFFSET 0.000000 0.000003 -20.557198
				CHANNELS 3 Xrotation Yrotation Zrotation
				JOINT RightLegRoll
				{
					OFFSET 0.000000 -0.000004 20.624397
					CHANNELS 3 Xrotation Yrotation Zrotation
					JOINT RightFoot
					{
						OFFSET 0.000000 -0.000002 17.166397
						CHANNELS 3 Xrotation Yrotation Zrotation
						JOINT RightToeBase
						{
							OFFSET 0.000000 -0.000002 14.350197
							CHANNELS 3 Xrotation Yrotation Zrotation
							End Site
							{
								OFFSET 0.006081 0.801059 6.949707
							}
						}
					}
				}
			}
		}
	}
	JOINT LeftUpLeg
	{
		OFFSET 5.666161 0.871610 -1.039028
		CHANNELS 3 Xrotation Yrotation Zrotation
		JOINT LeftUpLegRoll
		{
			OFFSET 0.000000 -0.000002 16.600597
			CHANNELS 3 Xrotation Yrotation Zrotation
			JOINT LeftLeg
			{
				OFFSET 0.000000 -0.000004 20.557098
				CHANNELS 3 Xrotation Yrotation Zrotation
				JOINT LeftLegRoll
				{
					OFFSET 0.000000 -0.000003 20.815102
					CHANNELS 3 Xrotation Yrotation Zrotation
					JOINT LeftFoot
					{
						OFFSET 0.000000 -0.000002 16.975708
						CHANNELS 3 Xrotation Yrotation Zrotation
						JOINT LeftToeBase
						{
							OFFSET 0.000000 -0.000002 14.350204
							CHANNELS 3 Xrotation Yrotation Zrotation
							End Site
							{
								OFFSET -0.027260 0.801060 6.949707
							}
						}
					}
				}
			}
		}
	}
}
MOTION
Frames: 4
Frame Time: 0.041667
51.675304 -9.860961 59.538300 19.249442 -0.856949 3.868097 1.652296 0.459982 -0.559372 7.312115 0.897567 -1.135319 8.957127 0.883906 -1.145993 -9.479952 -3.612931 1.197763 -2.358168 2.825448 2.079098 3.976237 -48.552205 6.335922 -48.920417 -121.191653 -80.749474 -0.000001 -0.000001 -0.000005 89.167484 1.354570 -5.519654 -0.000005 -0.000003 -3.000001 -5.000192 -7.998841 0.000176 -4.189153 40.907424 2.936692 -45.986141 129.845270 74.703603 0.000001 0.000002 0.000005 77.570882 3.988842 2.170027 0.000007 0.000001 3.000000 -5.000209 7.998744 -0.000181 -92.005551 -173.711368 1.339411 -179.999991 0.000005 -0.810998 108.302860 -0.972489 -3.605336 0.000002 -0.000003 1.407360 67.311268 7.767884 0.068029 25.459773 -7.347135 0.004901 -91.140712 176.553574 -0.622587 -0.000005 -0.000004 -0.886425 -71.684072 0.383297 2.644458 -0.000004 -0.000001 -1.461479 64.413793 -7.124576 -1.881143 25.461905 7.355614 -0.007365 
51.691502 -9.785612 59.442799 19.043795 -0.979917 3.852239 1.673741 0.482817 -0.561926 7.355283 0.942874 -1.141594 9.000305 0.929135 -1.152809 -9.400698 -3.637302 1.187879 -2.345974 2.847365 2.071903 3.934647 -48.611242 6.274414 -48.884217 -121.156491 -80.749078 0.000001 -0.000002 -0.000004 89.218069 1.386553 -5.555243 -0.000005 -0.000004 -3.000002 -5.000191 -7.998841 0.000175 -4.168229 40.908680 2.909432 -45.918406 129.810819 74.654282 -0.000001 0.000001 0.000005 77.640359 3.968874 2.192215 0.000008 0.000003 3.000002 -5.000209 7.998747 -0.000187 -91.988236 -173.678924 1.302508 -179.999991 0.000005 -0.815001 108.180887 -0.870210 -3.549764 0.000002 -0.000003 1.409740 67.295648 7.751794 0.109787 25.459778 -7.347135 0.004901 -91.101787 176.584200 -0.729450 -0.000003 -0.000004 -0.894309 -71.835770 0.381463 2.662071 -0.000004 -0.000001 -1.471340 64.430452 -7.142497 -1.838335 25.461904 7.355613 -0.007364 
51.725700 -9.737289 59.369698 18.849278 -1.081283 3.837490 1.692704 0.501390 -0.564478 7.393437 0.979687 -1.147689 9.038476 0.965872 -1.159347 -9.321707 -3.659483 1.179362 -2.333585 2.868343 2.065431 3.898006 -48.672502 6.218693 -48.854420 -121.122053 -80.752234 0.000000 0.000000 -0.000006 89.266782 1.415509 -5.588547 -0.000007 -0.000004 -3.000001 -5.000188 -7.998841 0.000177 -4.151496 40.915384 2.888359 -45.855609 129.775561 74.610712 0.000002 0.000001 0.000005 77.708585 3.949991 2.213986 0.000007 0.000001 3.000001 -5.000207 7.998744 -0.000185 -91.973285 -173.651085 1.272548 -179.999991 0.000005 -0.818006 108.066372 -0.779159 -3.500136 0.000002 -0.000003 1.411030 67.281489 7.732401 0.159472 25.459774 -7.347134 0.004900 -91.076714 176.607382 -0.821415 -0.000004 -0.000004 -0.901357 -71.980693 0.375875 2.675052 -0.000004 -0.000001 -1.480291 64.441284 -7.157995 -1.801453 25.461904 7.355611 -0.007364 
51.744507 -9.675240 59.289200 18.668147 -1.157226 3.824498 1.708718 0.514952 -0.567009 7.425653 1.006519 -1.153515 9.070694 0.992632 -1.165484 -9.243155 -3.679303 1.172422 -2.320909 2.888332 2.059874 3.867184 -48.736258 6.169778 -48.831413 -121.088476 -80.758436 -0.000001 -0.000001 -0.000002 89.314422 1.440843 -5.619280 -0.000008 -0.000001 -3.000000 -5.000189 -7.998843 0.000175 -4.139710 40.928099 2.874494 -45.800335 129.737394 74.576254 0.000000 0.000003 0.000003 77.775617 3.932247 2.235343 0.000007 0.000005 3.000001 -5.000209 7.998741 -0.000186 -91.961653 -173.628887 1.251912 -179.999991 0.000005 -0.820997 107.960251 -0.701534 -3.458132 0.000002 -0.000004 1.411070 67.269201 7.709471 0.217708 25.459779 -7.347135 0.004900 -91.068196 176.621671 -0.897998 -0.000003 -0.000004 -0.907422 -72.117823 0.365926 2.682529 -0.000004 -0.000001 -1.488161 64.444863 -7.170799 -1.771532 25.461909 7.355612 -0.007364 
